<?xml version="1.0" standalone="no"?>
<!DOCTYPE svg PUBLIC "-//W3C//DTD SVG 20010904//EN"
 "http://www.w3.org/TR/2001/REC-SVG-20010904/DTD/svg10.dtd">
<svg version="1.0" xmlns="http://www.w3.org/2000/svg"
 width="700.000000pt" height="700.000000pt" viewBox="0 0 700.000000 700.000000"
 preserveAspectRatio="xMidYMid meet">
<metadata>
Created by potrace 1.11, written by Peter Selinger 2001-2013
</metadata>
<g transform="translate(0.000000,700.000000) scale(0.100000,-0.100000)"
fill="#000000" stroke="none">
<path d="M2605 6332 c-565 -28 -1167 -315 -1654 -787 -360 -350 -565 -725
-665 -1217 -23 -113 -27 -148 -41 -293 -9 -106 -4 -402 9 -475 2 -14 7 -47 10
-75 37 -327 219 -871 423 -1265 28 -52 86 -165 130 -250 44 -85 98 -198 119
-250 46 -116 71 -156 118 -198 33 -29 42 -32 99 -31 34 1 89 4 122 8 142 15
267 -21 473 -136 465 -261 848 -392 1167 -398 287 -6 481 47 660 180 151 112
291 273 331 382 9 27 20 51 23 55 7 8 43 15 127 23 l60 6 48 -123 c26 -68 52
-132 56 -143 5 -11 21 -49 36 -85 73 -178 168 -302 291 -379 65 -41 111 -55
307 -96 10 -3 44 -7 75 -10 31 -3 67 -8 81 -10 62 -11 92 -14 190 -21 193 -12
509 -7 598 11 13 2 53 7 89 10 37 3 69 8 72 10 3 1 29 6 56 9 28 4 79 13 115
21 36 8 92 20 125 26 35 7 71 21 85 33 14 13 48 39 75 58 66 48 88 73 120 136
28 57 31 66 41 150 5 42 13 63 34 83 27 28 58 84 65 118 8 40 15 121 20 201
15 293 17 374 17 545 0 274 -11 395 -59 680 -12 72 -97 185 -139 185 -9 0 -41
20 -73 44 -178 137 -367 177 -911 190 -74 2 -142 7 -151 10 -23 10 -45 62 -99
235 -42 136 -67 212 -137 409 -8 24 -14 44 -12 46 2 2 45 23 94 47 119 58 196
131 225 213 11 32 36 76 55 97 40 44 43 67 16 100 -14 18 -28 23 -58 22 -39
-2 -41 -1 -77 65 -21 37 -72 137 -113 222 -96 195 -113 220 -158 220 -33 0
-34 2 -102 138 -116 230 -227 386 -398 558 -170 170 -336 293 -538 398 -292
150 -549 225 -962 281 -103 14 -390 24 -510 17z m2449 -2544 c20 -53 36 -103
36 -111 0 -7 3 -17 7 -21 4 -3 8 -12 9 -19 1 -7 28 -86 59 -176 59 -170 61
-204 12 -159 -25 22 -77 119 -170 319 -43 93 -91 149 -127 149 -9 0 -11 10 -7
36 3 20 7 37 9 38 27 17 125 53 129 48 4 -4 23 -51 43 -104z m-161 -230 c19
-29 38 -64 42 -78 4 -14 31 -74 61 -135 76 -157 123 -204 211 -210 26 -2 53
-3 59 -4 10 -1 36 -66 51 -126 16 -66 16 -65 -8 -66 -23 -1 -139 -1 -309 0
l-76 1 -23 113 c-13 61 -25 126 -28 142 -2 17 -6 41 -9 55 -7 39 -18 360 -11
360 3 0 21 -24 40 -52z m-909 -154 c71 -73 104 -194 76 -279 -27 -83 -111
-143 -211 -152 -92 -9 -126 2 -148 46 l-20 37 35 85 c19 46 50 107 69 136 38
57 138 163 154 163 5 0 26 -16 45 -36z m1666 -289 c36 -3 83 -7 105 -10 22 -2
69 -7 105 -10 220 -20 355 -55 464 -119 78 -46 106 -93 84 -142 -14 -30 -15
-30 -113 2 -135 43 -217 57 -410 70 -49 3 -110 7 -135 9 -25 2 -90 7 -145 10
-55 3 -107 8 -116 11 -24 7 -59 106 -59 167 l0 28 78 -6 c42 -3 106 -7 142
-10z m140 -330 c25 -2 70 -7 100 -10 75 -9 350 -76 350 -85 0 -32 -598 -276
-620 -254 -10 11 -90 307 -90 334 0 10 6 20 13 23 12 5 164 0 247 -8z m-412
-20 c11 -13 34 -77 51 -142 18 -65 41 -145 51 -178 l18 -60 -77 -23 c-42 -13
-87 -25 -101 -28 -14 -3 -47 -11 -75 -18 -44 -13 -102 -25 -185 -40 -14 -3
-61 -12 -104 -20 -44 -9 -81 -14 -84 -12 -2 2 7 21 20 43 73 116 103 310 73
466 l-7 37 200 0 201 0 19 -25z m1064 -162 c55 -57 47 -99 -31 -171 -46 -44
-149 -119 -170 -124 -6 -2 -27 35 -46 82 -38 94 -40 100 -24 100 12 0 131 69
194 112 22 15 43 28 46 28 3 0 17 -12 31 -27z m-394 -240 c17 -27 37 -64 45
-85 l15 -36 -51 -23 c-58 -25 -126 -51 -206 -80 l-55 -19 -26 28 c-30 33 -94
131 -89 136 2 1 47 18 99 36 52 18 118 43 145 55 57 25 77 33 86 34 4 1 20
-20 37 -46z m513 -35 c0 -7 3 -22 5 -33 7 -28 6 -535 0 -689 -4 -71 -11 -135
-17 -143 -13 -15 -39 -18 -39 -3 0 14 -67 118 -111 170 -37 46 -40 57 -54 200
-6 65 -37 230 -55 289 -5 19 -9 35 -7 36 1 1 39 23 85 49 45 27 104 68 130 92
50 46 62 52 63 32z m-4021 -95 c0 -12 -9 -43 -21 -70 -11 -26 -22 -65 -24 -86
-3 -46 -23 -69 -82 -97 -58 -27 -134 -32 -207 -14 -56 15 -136 56 -136 72 0
12 32 30 249 139 211 107 220 109 221 56z m3035 -33 c14 -27 38 -65 55 -83
l30 -35 -28 -10 c-33 -13 -103 -35 -118 -38 -5 -1 -48 -12 -95 -24 -46 -12
-91 -24 -99 -26 -16 -4 -280 -63 -315 -70 -68 -14 -125 -24 -155 -29 -19 -3
-60 -10 -90 -15 -30 -5 -71 -12 -90 -15 -19 -3 -42 -8 -50 -10 -8 -2 -44 -7
-80 -10 -36 -3 -72 -8 -80 -10 -18 -5 -93 -13 -168 -20 -75 -6 -97 5 -116 61
-9 26 -16 49 -16 50 0 1 46 2 103 2 145 0 273 37 382 112 39 27 94 39 287 66
97 14 527 118 588 143 14 5 26 10 27 10 2 1 14 -21 28 -49z m-3039 -65 c-1 -8
-5 -17 -8 -21 -5 -4 -4 16 1 34 3 9 9 -1 7 -13z m3629 -67 c22 -101 41 -269
28 -252 -4 5 -63 48 -129 95 l-122 85 92 38 c50 21 95 42 101 47 15 15 24 10
30 -13z m-2157 -173 c39 -115 41 -125 25 -140 -8 -8 -29 -15 -47 -15 l-33 0
-7 73 c-3 39 -9 86 -12 103 -6 32 -6 32 28 25 27 -6 35 -14 46 -46z m1892 -9
c36 -28 72 -56 80 -63 8 -7 58 -46 110 -88 144 -114 135 -102 139 -186 6 -129
4 -546 -3 -557 -7 -12 -235 -68 -315 -77 -30 -4 -63 -9 -75 -11 -132 -25 -756
-25 -893 0 -10 2 -45 7 -78 11 -178 20 -327 131 -418 310 -36 73 -169 396
-165 401 2 1 35 5 73 9 39 3 84 8 100 10 17 3 84 12 150 20 159 22 404 68 590
112 184 43 467 118 518 138 20 8 37 13 37 10 0 -2 15 2 32 10 37 15 32 17 118
-49z m520 -556 c12 -36 21 -84 21 -106 1 -43 -28 -110 -55 -133 -14 -12 -16 4
-16 170 1 203 5 209 50 69z"/>
</g>
</svg>
